# xmcd
#
# Track frame offsets:
#	150
#	19010
#	33595
#	49017
#	69594
#	88556
#	102974
#	118924
#	134178
#	150094
#	166643
#	183583
#	199322
#	215867
#	234416
#	247638
#	265972
#	280736
#	297179
#
# Disc length: 4169 seconds
#
# Revision: 1
# Processed by: cddbd v1.5.2PL0 Copyright (c) Steve Scherf et al.
# Submitted via: audiograbber 1.83.01
#
DISCID=10104713
DTITLE=Various Artist - Nu Country Traxx Vol. 140
DYEAR=2010
DGENRE=Country
TTITLE0=Taylor Swift - Back To December [Radio Edit]
TTITLE1=Alan Jackson ft. Lee Ann Womack - Ring Of Fire
TTITLE2=LeAnn Rimes - Crazy Women
TTITLE3=Sugarland - Little Miss
TTITLE4=Billy Ray Cyrus - Some Gave All
TTITLE5=Gord Bamford - My Daughter's Father
TTITLE6=Chuck Wicks - Old School
TTITLE7=Aaron Lines - These Are The Days
TTITLE8=Crossin Dixon - Goodbye Henry
TTITLE9=Darius Rucker - This
TTITLE10=Paul Brandt - The Highway Patrol
TTITLE11=Josh Thompson - Won't Be Lonely Long
TTITLE12=Jo Hikk - With A Smile Like That
TTITLE13=Easton Corbin - I Can't Love You Back
TTITLE14=Guy Penrod - Pray About Everything
TTITLE15=The Doobie Bothers - Nobody
TTITLE16=Crystal Shawanda - Fight For Me
TTITLE17=Chad Brownlee - Day After You
TTITLE18=Jason Michael Carroll - Christmas On The Farm
EXTD=
EXTT0=
EXTT1=
EXTT2=
EXTT3=
EXTT4=
EXTT5=
EXTT6=
EXTT7=
EXTT8=
EXTT9=
EXTT10=
EXTT11=
EXTT12=
EXTT13=
EXTT14=
EXTT15=
EXTT16=
EXTT17=
EXTT18=
PLAYORDER=
